<svg xmlns="http://www.w3.org/2000/svg" viewBox="0 0 256 256" width="256" height="256">
  <rect width="256" height="256" rx="56" fill="#0A66C2"/>
  <path fill="#FFFFFF" d="M81.5 99.6v94.5H50.1V99.6h31.4zM83.6 70.5c0 9.1-7.3 16.4-18 16.4h-.2C55.1 86.9 48 79.6 48 70.5 48 61.2 55.3 54 65.8 54s17.6 7.2 17.8 16.5zM194.6 194.1h-31.4v-50.5c0-12.7-4.5-21.3-15.9-21.3-8.7 0-13.8 5.8-16.1 11.5-.8 2-1 4.8-1 7.6v52.7H98.8s.4-85.6 0-94.5h31.4v13.4c4.2-6.4 11.6-15.6 28.3-15.6 20.7 0 36.1 13.5 36.1 42.5v54.2z"/>
</svg>
